<svg width="34" height="26" viewBox="0 0 34 26" fill="none" xmlns="http://www.w3.org/2000/svg">
<path d="M14.2792 0.467884L8.37109 6.37466H1.59373C0.713196 6.37466 0 7.08786 0 7.9684V17.5308C0 18.4107 0.713196 19.1245 1.59373 19.1245H8.37109L14.2792 25.0313C15.2773 26.0294 16.9998 25.3281 16.9998 23.9044V1.59479C16.9998 0.169722 15.2759 -0.528864 14.2792 0.467884ZM30.6555 12.7496L33.6862 9.71885C34.1046 9.30049 34.1046 8.62183 33.6862 8.20347L32.1709 6.6881C31.7525 6.26974 31.0738 6.26974 30.6555 6.6881L27.6247 9.71885L24.594 6.6881C24.1756 6.26974 23.497 6.26974 23.0786 6.6881L21.5632 8.20347C21.1449 8.62183 21.1449 9.30049 21.5632 9.71885L24.594 12.7496L21.5639 15.7797C21.1455 16.198 21.1455 16.8767 21.5639 17.2951L23.0793 18.8104C23.4976 19.2288 24.1763 19.2288 24.5946 18.8104L27.6247 15.7804L30.6555 18.8111C31.0738 19.2295 31.7525 19.2295 32.1709 18.8111L33.6862 17.2957C34.1046 16.8774 34.1046 16.1987 33.6862 15.7804L30.6555 12.7496Z" fill="white"/>
</svg>
