<svg width="38" height="38" viewBox="0 0 38 38" fill="none" xmlns="http://www.w3.org/2000/svg">
<path d="M37.0958 5.76093e-07H33.5236C33.4012 -0.000137633 33.28 0.0245934 33.1674 0.0726941C33.0548 0.120795 32.9531 0.191263 32.8686 0.279825C32.784 0.368388 32.7184 0.473199 32.6755 0.587904C32.6327 0.702609 32.6136 0.824817 32.6194 0.947118L32.9208 7.18288C31.1685 5.11797 28.9873 3.45964 26.529 2.32328C24.0708 1.18691 21.3944 0.599798 18.6862 0.60278C8.38919 0.60278 -0.00752968 9.00628 5.06698e-06 19.3033C0.00753981 29.6168 8.37111 37.9751 18.6862 37.9751C23.3133 37.9817 27.7771 36.265 31.2074 33.1597C31.2991 33.0777 31.373 32.9778 31.4247 32.8663C31.4765 32.7547 31.5049 32.6337 31.5083 32.5108C31.5117 32.3879 31.4899 32.2655 31.4444 32.1513C31.3989 32.0371 31.3306 31.9333 31.2436 31.8464L28.6818 29.2846C28.5196 29.1225 28.302 29.028 28.0729 29.0203C27.8437 29.0126 27.6202 29.0923 27.4476 29.2431C25.4233 31.0241 22.9043 32.1457 20.2264 32.4585C17.5484 32.7712 14.8387 32.2603 12.4586 30.9938C10.0784 29.7273 8.14081 27.7653 6.90412 25.3695C5.66743 22.9737 5.19039 20.2579 5.53659 17.584C5.88279 14.9102 7.03579 12.4054 8.84188 10.4035C10.648 8.40171 13.0213 6.99795 15.6456 6.37939C18.2698 5.76084 21.0203 5.95688 23.5303 6.94138C26.0403 7.92588 28.1905 9.65207 29.6944 11.8898L22.0444 11.5229C21.9221 11.5171 21.7999 11.5362 21.6852 11.579C21.5705 11.6218 21.4657 11.6875 21.3771 11.772C21.2886 11.8566 21.2181 11.9582 21.17 12.0708C21.1219 12.1834 21.0972 12.3046 21.0973 12.4271V15.9993C21.0973 16.2391 21.1926 16.4691 21.3621 16.6386C21.5317 16.8082 21.7617 16.9035 22.0015 16.9035H37.0958C37.3356 16.9035 37.5656 16.8082 37.7352 16.6386C37.9047 16.4691 38 16.2391 38 15.9993V0.90417C38 0.66437 37.9047 0.43439 37.7352 0.264826C37.5656 0.095261 37.3356 5.76093e-07 37.0958 5.76093e-07Z" fill="white"/>
</svg>
