<svg width="38" height="32" viewBox="0 0 38 32" fill="none" xmlns="http://www.w3.org/2000/svg">
<path d="M14.186 3.63208L8.31646 9.50031H1.58333C0.708542 9.50031 0 10.2088 0 11.0836V20.5836C0 21.4578 0.708542 22.167 1.58333 22.167H8.31646L14.186 28.0352C15.1776 29.0268 16.8889 28.3301 16.8889 26.9157V4.75162C16.8889 3.33586 15.1763 2.64183 14.186 3.63208ZM29.5786 0.262215C28.8417 -0.221361 27.8515 -0.0175067 27.3679 0.720722C26.8837 1.45763 27.0895 2.44788 27.8264 2.93145C32.1984 5.80058 34.8076 10.6238 34.8076 15.8343C34.8076 21.0448 32.1984 25.868 27.8264 28.7371C27.0895 29.2201 26.8837 30.211 27.3679 30.9472C27.8324 31.6538 28.8147 31.9078 29.5786 31.4057C34.8511 27.9448 38 22.1228 38 15.8336C38 9.54451 34.8511 3.72312 29.5786 0.262215ZM31.6667 15.8336C31.6667 11.6424 29.5516 7.78899 26.0082 5.52614C25.27 5.0551 24.291 5.27412 23.8232 6.01829C23.3555 6.76246 23.5739 7.74742 24.3121 8.21912C26.9345 9.89416 28.5 12.7402 28.5 15.8336C28.5 18.9271 26.9345 21.7731 24.3121 23.4482C23.5739 23.9192 23.3555 24.9042 23.8232 25.649C24.2527 26.3325 25.2166 26.6478 26.0082 26.1411C29.5516 23.8783 31.6667 20.0255 31.6667 15.8336ZM22.3138 10.7624C21.5498 10.3447 20.586 10.6199 20.1624 11.3858C19.7409 12.1517 20.0199 13.1143 20.7859 13.5371C21.6376 14.0049 22.1667 14.8856 22.1667 15.8336C22.1667 16.7823 21.6376 17.6624 20.7865 18.1301C20.0206 18.553 19.7415 19.5155 20.1631 20.2815C20.5873 21.0507 21.5518 21.3238 22.3144 20.9049C24.1768 19.8791 25.334 17.9362 25.334 15.833C25.334 13.7298 24.1768 11.7876 22.3138 10.7624Z" fill="white"/>
</svg>
