<svg width="28" height="27" viewBox="0 0 28 27" fill="none" xmlns="http://www.w3.org/2000/svg">
<rect x="20.75" y="3.375" width="6.5" height="1.25" rx="0.625" fill="white" stroke="white" stroke-width="0.5"/>
<rect x="23.375" y="7.25" width="6.5" height="1.25" rx="0.625" transform="rotate(-90 23.375 7.25)" fill="white" stroke="white" stroke-width="0.5"/>
<path d="M18.6484 21.3908C18.3359 22.7287 17.3203 23.4806 15.958 23.7345C14.7617 23.9543 13.7656 24.008 12.8086 23.2365C11.6416 22.2551 11.6269 20.6291 12.6767 19.6037C13.5068 18.8127 14.6738 18.6515 16.4267 18.3439C16.7197 18.2902 16.9736 18.2219 17.1884 17.9826C17.5009 17.631 17.4033 17.7824 17.4033 10.0138C17.4033 9.46697 17.1347 9.3156 16.5732 9.41326C16.1728 9.48162 7.50582 11.1027 7.50582 11.1027C7.00778 11.2101 6.85153 11.3566 6.85153 11.9181C6.85153 23.3781 6.90524 22.8508 6.72946 23.6125C6.52438 24.5012 5.9775 25.1701 5.25485 25.5412C4.43453 25.9953 2.95016 26.1955 2.15914 26.049C0.0497684 25.6535 -0.692419 23.217 0.738245 21.8205C1.56832 21.0295 2.73532 20.8683 4.48825 20.5607C4.78121 20.507 5.03512 20.4386 5.24996 20.1994C5.74313 19.6379 5.33785 7.6701 5.50387 7.00603C5.54293 6.75213 5.65035 6.53728 5.85055 6.37615C6.05563 6.20525 6.42672 6.1076 6.50485 6.1076C16.4658 4.24236 17.6816 4.0031 17.8525 4.0031C18.414 3.96404 18.7363 4.29607 18.7363 4.86248C18.7461 21.6838 18.79 20.7804 18.6484 21.3908Z" fill="white"/>
</svg>
