<svg width="39" height="39" viewBox="0 0 39 39" fill="none" xmlns="http://www.w3.org/2000/svg">
<g clip-path="url(#clip0_74_12)">
<path d="M38.1548 27.4227C38.8505 28.1183 38.8505 29.2462 38.1548 29.9417L32.2173 35.8781C31.1033 36.9921 29.1765 36.2113 29.1765 34.6185V31.651H24.8136C24.6914 31.651 24.5706 31.6259 24.4586 31.5772C24.3466 31.5285 24.2458 31.4573 24.1624 31.3681L18.9259 25.7574L22.8842 21.5164L26.8015 25.7135H29.1765V22.7462C29.1765 21.1551 31.102 20.3713 32.2173 21.4866L38.1548 27.4227ZM1.56714 13.8385H7.80152L11.7189 18.0356L15.6772 13.7946L10.4406 8.18392C10.3573 8.09463 10.2565 8.02344 10.1444 7.97477C10.0324 7.9261 9.9116 7.90099 9.78947 7.901H1.56714C1.07529 7.901 0.676517 8.29977 0.676517 8.79162V12.9479C0.676517 13.4397 1.07529 13.8385 1.56714 13.8385ZM29.1765 13.8385V16.8061C29.1765 18.3988 31.1033 19.1796 32.2173 18.0656L38.1548 12.1293C38.8505 11.4337 38.8505 10.3058 38.1548 9.61025L32.2173 3.67417C31.102 2.55881 29.1765 3.34263 29.1765 4.93366V7.901H24.8136C24.6914 7.90101 24.5706 7.92613 24.4586 7.9748C24.3466 8.02347 24.2458 8.09465 24.1624 8.18392L7.80152 25.7135H1.56714C1.07529 25.7135 0.676517 26.1123 0.676517 26.6041V30.7604C0.676517 31.2522 1.07529 31.651 1.56714 31.651H9.78947C10.0363 31.651 10.2721 31.5485 10.4406 31.3681L26.8015 13.8385H29.1765Z" fill="white"/>
</g>
<defs>
<clipPath id="clip0_74_12">
<rect width="38" height="38" fill="white" transform="translate(0.676517 0.776001)"/>
</clipPath>
</defs>
</svg>
