<svg width="34" height="34" viewBox="0 0 34 34" fill="none" xmlns="http://www.w3.org/2000/svg">
<path d="M19.0386 0.623425L11.1613 8.50006H2.12494C0.950913 8.50006 0 9.45099 0 10.6251V23.375C0 24.5482 0.950913 25.5 2.12494 25.5H11.1613L19.0386 33.3757C20.3694 34.7065 22.6661 33.7715 22.6661 31.8732V2.12686C22.6661 0.225874 20.3676 -0.704694 19.0386 0.623425ZM29.9467 10.193C28.9214 9.6325 27.6278 10.0017 27.0594 11.0297C26.4936 12.0577 26.8682 13.3495 27.8961 13.917C29.0391 14.5457 29.7492 15.7268 29.7492 17C29.7492 18.2732 29.0391 19.4544 27.897 20.0821C26.869 20.6497 26.4945 21.9415 27.0603 22.9695C27.6296 24.0019 28.924 24.3684 29.9476 23.8062C32.447 22.4294 34 19.8218 34 16.9991C34 14.1764 32.447 11.5698 29.9467 10.193Z" fill="white"/>
</svg>
