<svg width="39" height="39" viewBox="0 0 39 39" fill="none" xmlns="http://www.w3.org/2000/svg">
<path d="M4.23902 9.98814H35.114C35.7699 9.98814 36.3015 9.45652 36.3015 8.80064V5.83189C36.3015 5.17602 35.7699 4.64439 35.114 4.64439H4.23902C3.58315 4.64439 3.05152 5.17602 3.05152 5.83189V8.80064C3.05152 9.45652 3.58315 9.98814 4.23902 9.98814ZM4.23902 21.8631H35.114C35.7699 21.8631 36.3015 21.3315 36.3015 20.6756V17.7069C36.3015 17.051 35.7699 16.5194 35.114 16.5194H4.23902C3.58315 16.5194 3.05152 17.051 3.05152 17.7069V20.6756C3.05152 21.3315 3.58315 21.8631 4.23902 21.8631ZM4.23902 33.7381H35.114C35.7699 33.7381 36.3015 33.2065 36.3015 32.5506V29.5819C36.3015 28.926 35.7699 28.3944 35.114 28.3944H4.23902C3.58315 28.3944 3.05152 28.926 3.05152 29.5819V32.5506C3.05152 33.2065 3.58315 33.7381 4.23902 33.7381Z" fill="white"/>
</svg>
